<?xml version="1.0" encoding="UTF-8"?><svg id="_Ñëîé_1" xmlns="http://www.w3.org/2000/svg" viewBox="0 0 3483.055 839.316"><defs><style>.cls-1{fill:#fff;}.cls-2{fill:none;stroke:#fff;stroke-miterlimit:10;stroke-width:10px;}</style></defs><path class="cls-1" d="M469.708,280.091h42.447c17.547,0,31.829,14.274,31.829,31.827v10.612h21.219v-10.612c0-29.255-23.799-53.054-53.048-53.054h-42.447c-5.854,0-10.61-4.761-10.61-10.61v-10.61h-21.22v10.61c0,17.549,14.28,31.836,31.83,31.836ZM505.737,539.341c-8.503,0-16.498,3.307-22.51,9.313l-7.301,7.304h-59.267c-5.849,0-10.609-4.765-10.609-10.614s4.759-10.609,10.609-10.609h63.662c52.659,0,95.495-42.839,95.495-95.496s-42.836-95.489-95.495-95.489c-5.848,0-10.612-4.762-10.612-10.611s4.764-10.609,10.612-10.609h42.444c0-11.723-9.504-21.223-21.223-21.223h-21.221c-17.557,0-31.831,14.278-31.831,31.832,0,13.828,8.878,25.588,21.22,29.969v23.081h-74.168c6.437-8.548,15.384-15.103,25.734-18.544,9.905-3.291,16.605-12.566,16.605-23.007v-.888h-94.348c9.21-9.022,20.755-15.675,33.634-18.945,10.732-2.735,18.27-12.403,18.27-23.48v-.017h-190.987c0,11.716,9.503,21.223,21.22,21.223h109.81c-7.478,6.045-13.993,13.214-19.363,21.22h-90.447c0,11.718,9.5,21.223,21.222,21.223h139.061c-6.22,6.087-11.364,13.269-15.156,21.216h-48.858c.514-3.589,1.297-7.093,2.304-10.499h-21.927c-.777,3.434-1.374,6.936-1.769,10.499h-53.655c0,11.72,9.503,21.223,21.221,21.223h169.796c-7.047,9.332-10.637,20.899-10.637,31.827,0,11.952,4.02,22.956,10.712,31.832h-.103c-29.254,0-53.052-23.797-53.052-53.049h-21.223c0,20.4,8.27,38.896,21.627,52.335-29.031-4.015-52.74-24.858-60.945-52.335h-21.93c8.242,36.186,37.079,64.62,73.497,72.245-7.641,9.194-12.25,20.995-12.25,33.858,0,28.158,22.068,51.194,49.806,52.883,1.07.115,2.149.17,3.249.17h59.267l7.301,7.297c6.012,6.012,14.007,9.326,22.51,9.326,4.914,0,9.833-1.172,14.231-3.364l47.741-23.87-47.741-23.872c-4.398-2.197-9.317-3.353-14.231-3.353ZM490.928,512.746l.006-21.525c6.758-1.377,13.053-4.06,18.618-7.748l15.228,15.226c-9.724,7.284-21.286,12.242-33.852,14.046ZM539.785,483.693l-15.232-15.231c3.689-5.561,6.372-11.85,7.754-18.616l21.519.008c-1.81,12.563-6.756,24.123-14.04,33.84ZM553.825,428.632l-21.519-.005c-1.382-6.756-4.065-13.048-7.754-18.615l15.228-15.229c7.289,9.721,12.235,21.286,14.045,33.849ZM490.928,365.735c12.566,1.811,24.128,6.756,33.852,14.049l-15.235,15.223c-5.564-3.688-11.855-6.371-18.616-7.748v-21.524ZM480.32,407.412c17.553,0,31.835,14.28,31.835,31.827s-14.282,31.832-31.835,31.832-31.831-14.276-31.831-31.832,14.274-31.827,31.831-31.827ZM437.878,492.295h31.835l-.005,21.223h-31.83v-21.223ZM386.684,534.734c-1.179-3.327-1.858-6.884-1.858-10.61,0-17.555,14.276-31.83,31.832-31.83v21.223c-13.825,0-25.59,8.875-29.974,21.217ZM510.477,571.454c-4.029,2.023-9.066,1.189-12.248-1.988l-2.902-2.899,2.902-2.905c3.181-3.173,8.219-4.008,12.248-1.987l9.776,4.893-9.776,4.887Z"/><circle class="cls-2" cx="419.658" cy="419.658" r="414.658"/><path class="cls-1" d="M152.891,300.249l-20.277-9.636,1.808-3.228c5.75,2.15,11.124,2.275,16.122.375,5-1.899,8.964-5.467,11.896-10.702,2.41-4.304,3.284-8.285,2.619-11.943-.664-3.656-2.711-6.447-6.144-8.369-1.977-1.107-3.989-1.642-6.036-1.604-2.046.04-4.416.756-7.108,2.152-2.691,1.397-5.988,3.6-9.891,6.61-4.855,3.624-9.018,6.279-12.484,7.966-3.467,1.688-6.637,2.472-9.512,2.352-2.874-.119-5.795-1.01-8.762-2.672-3.605-2.019-6.341-4.64-8.205-7.861-1.864-3.221-2.759-6.74-2.684-10.557.074-3.816,1.187-7.645,3.337-11.484,2.736-4.886,7.042-8.549,12.917-10.99l-2.656-4.467,1.124-2.006,17.9,8.764-1.808,3.228c-5.551-1.274-10.231-1.24-14.041.103-3.809,1.345-6.756,3.877-8.84,7.599-1.987,3.549-2.679,6.866-2.079,9.954.603,3.088,2.357,5.446,5.265,7.074,2.735,1.532,5.629,1.854,8.685.967,3.057-.885,7.074-3.182,12.053-6.889,5.785-4.325,10.657-7.499,14.617-9.522,3.96-2.023,7.432-3.039,10.417-3.049,2.985-.008,6.02.85,9.102,2.576,3.897,2.183,6.767,5.107,8.61,8.775,1.843,3.668,2.614,7.75,2.313,12.242-.301,4.493-1.77,9.095-4.408,13.806-1.857,3.315-4.006,6.028-6.448,8.137-2.442,2.11-5.504,3.929-9.188,5.457l2.907,4.837-1.124,2.007Z"/><path class="cls-1" d="M194.739,161.908l14.495,14.069c7.559,7.337,11.754,14.453,12.588,21.346.833,6.895-2.396,14.098-9.685,21.607-4.551,4.689-8.993,7.973-13.325,9.852-4.333,1.88-8.737,2.159-13.212.833-4.475-1.323-9.224-4.424-14.247-9.299l-18.943-18.387c-3.54-3.436-6.348-5.999-8.424-7.689-2.076-1.688-3.963-2.569-5.661-2.638-1.179-.029-2.353.342-3.52,1.113-1.167.772-2.541,1.972-4.119,3.598l-2.727-2.647,23.75-24.469,2.727,2.646c-1.579,1.627-2.759,3.036-3.544,4.225-.783,1.191-1.071,2.445-.863,3.761.257,1.458,1.227,3.211,2.907,5.261,1.681,2.05,4.292,4.792,7.831,8.228l19.518,18.944c4.879,4.736,9.691,7.316,14.436,7.741,4.744.424,9.716-2.042,14.917-7.4,4.643-4.783,6.786-9.67,6.429-14.664-.357-4.992-3.094-9.972-8.214-14.941l-17.293-16.785c-4.257-4.132-7.637-7.111-10.14-8.937-2.502-1.823-4.672-2.699-6.51-2.625-1.225.02-2.421.461-3.587,1.327-1.166.867-2.469,2.041-3.908,3.523l-2.727-2.647,20.198-20.809,2.727,2.646c-1.44,1.483-2.527,2.843-3.263,4.08-.735,1.237-.975,2.537-.72,3.9.308,1.692,1.411,3.693,3.307,5.997,1.896,2.307,4.831,5.385,8.801,9.239Z"/><path class="cls-1" d="M302.683,154.795l-71.655-32.259-.351.191,20.421,37.5c2.104,3.864,3.863,6.607,5.278,8.228,1.414,1.622,2.91,2.383,4.488,2.282,1.578-.099,3.628-.761,6.151-1.983l1.817,3.337-23.624,12.865-1.817-3.337c2.688-1.615,4.56-3.09,5.617-4.426,1.057-1.333,1.341-3.007.854-5.02-.489-2.011-1.72-4.831-3.697-8.462l-19.417-35.656c-1.817-3.337-3.41-5.772-4.776-7.306-1.367-1.533-2.878-2.322-4.536-2.37-1.658-.045-3.777.559-6.358,1.812l-1.817-3.337,17.389-9.47,66.261,30.3.352-.191-18.844-34.602c-2.104-3.864-3.864-6.606-5.278-8.228-1.415-1.621-2.903-2.404-4.468-2.349-1.564.055-3.622.739-6.17,2.051l-1.817-3.337,23.624-12.866,1.817,3.337c-2.721,1.558-4.601,3.018-5.642,4.382-1.042,1.364-1.318,3.052-.829,5.063.487,2.012,1.721,4.833,3.697,8.462l28.6,52.518-5.269,2.87Z"/><path class="cls-1" d="M324.52,143.274l-.72-3.731c3.313-.774,5.766-1.604,7.362-2.489,1.594-.884,2.518-2.167,2.772-3.845.252-1.678.083-4.055-.51-7.133l-8.828-45.756c-.594-3.076-1.269-5.339-2.023-6.79-.755-1.449-1.894-2.333-3.414-2.651-1.522-.317-3.703-.269-6.542.142l-.72-3.731,34.465-6.649c5.891-1.137,11.51-1.218,16.858-.248,5.347.972,10.191,2.855,14.534,5.649,4.341,2.795,7.987,6.387,10.938,10.773,2.95,4.388,4.97,9.396,6.056,15.025,1.376,7.136.941,13.771-1.303,19.907-2.245,6.137-5.98,11.322-11.207,15.555-5.227,4.234-11.668,7.088-19.327,8.566l-38.392,7.407ZM334.624,67.895c-1.114.215-1.562.879-1.347,1.991l10.248,53.121c1.44,7.462,7.036,10.253,16.79,8.371,8.901-1.718,15.242-5.724,19.017-12.021,3.776-6.295,4.672-14.582,2.689-24.859-1.402-7.266-3.744-13.246-7.026-17.944-3.283-4.696-7.296-7.996-12.043-9.898-4.746-1.901-10.033-2.291-15.858-1.167l-12.47,2.406Z"/><path class="cls-1" d="M415.852,128.227l.113-22.45,3.69.266c.495,6.119,2.664,11.037,6.507,14.755,3.843,3.72,8.756,5.794,14.741,6.225,4.92.354,8.895-.545,11.925-2.701,3.028-2.153,4.685-5.192,4.968-9.117.163-2.26-.208-4.309-1.111-6.146-.905-1.835-2.56-3.676-4.966-5.521-2.408-1.843-5.803-3.893-10.185-6.147-5.343-2.857-9.514-5.498-12.514-7.919-3.001-2.422-5.057-4.959-6.169-7.613-1.112-2.652-1.546-5.676-1.302-9.067.297-4.122,1.508-7.711,3.633-10.767,2.125-3.056,4.931-5.36,8.418-6.914,3.486-1.553,7.425-2.172,11.814-1.856,5.585.402,10.73,2.745,15.435,7.027l2.917-4.302,2.294.166-.332,19.927-3.69-.266c-1.204-5.566-3.223-9.79-6.056-12.667-2.835-2.877-6.379-4.47-10.634-4.776-4.057-.292-7.354.49-9.894,2.345-2.54,1.857-3.929,4.446-4.169,7.771-.225,3.126.712,5.884,2.813,8.273,2.1,2.392,5.885,5.053,11.356,7.986,6.372,3.401,11.315,6.464,14.828,9.189,3.513,2.727,5.907,5.438,7.184,8.137,1.275,2.699,1.787,5.811,1.533,9.334-.321,4.456-1.75,8.296-4.289,11.522-2.538,3.226-5.906,5.658-10.1,7.293-4.195,1.635-8.985,2.26-14.372,1.873-3.79-.273-7.159-1.067-10.105-2.382-2.947-1.315-5.894-3.314-8.842-6l-3.145,4.686-2.294-.165Z"/><path class="cls-1" d="M510.059,81.563l3.595,48.259,29.724-36.192c1.688-2.056,2.938-3.709,3.747-4.959.808-1.249,1.371-2.382,1.688-3.401.536-1.718.372-3.095-.491-4.134-.864-1.037-2.696-1.993-5.496-2.866l1.132-3.627,23.198,7.235-1.132,3.627c-3.027-.594-5.441-.579-7.242.046-1.803.626-3.66,2.106-5.575,4.441l-45.552,55.034-3.341-1.042-6.081-67.156c-.381-4.377-1.162-7.695-2.344-9.949-1.183-2.254-3.432-4.003-6.744-5.246l1.161-3.723,31.121,9.706-1.161,3.723c-3.5-1.092-5.928-1.482-7.281-1.171-1.354.311-2.239,1.135-2.656,2.471-.278.892-.426,1.98-.442,3.266-.019,1.288.04,3.173.173,5.658Z"/><path class="cls-1" d="M532.523,150.313l1.925-3.277c2.812,1.266,5.158,1.812,7.038,1.641,1.879-.172,4.032-1.207,6.463-3.104l55.391-42.964,3.708,2.178-8.993,60.128c-.569,3.997-.931,7.244-1.084,9.743-.154,2.5-.05,4.494.313,5.983.361,1.488.981,2.704,1.86,3.644.877.941,2.062,1.85,3.559,2.728l-1.976,3.363-28.109-16.511,1.976-3.363c3.046,1.79,5.312,2.734,6.801,2.835,1.486.101,2.619-.509,3.396-1.833.676-1.149,1.179-2.303,1.512-3.461.332-1.157.669-2.951,1.013-5.378l1.936-11.389-23.022-13.523c-4.724,3.565-8.247,6.405-10.571,8.519-2.325,2.114-3.824,3.747-4.499,4.896-.945,1.61-1.064,3.028-.354,4.257.708,1.228,2.24,2.534,4.599,3.919l-1.925,3.276-20.953-12.307ZM570.484,134.455l19.659,11.548,5.543-30.957-.345-.203-24.857,19.612Z"/><path class="cls-1" d="M648.753,239.571l-45.475-45.882,2.699-2.675c2.299,2.132,4.202,3.555,5.708,4.269,1.504.713,3.014.696,4.525-.051,1.512-.748,3.38-2.223,5.606-4.43l33.098-32.804c2.226-2.206,3.729-4.026,4.515-5.46.783-1.434.885-2.872.303-4.312-.584-1.441-1.838-3.226-3.76-5.355l2.699-2.675,21.399,21.592-2.698,2.675c-2.066-1.989-3.816-3.258-5.251-3.807-1.437-.548-2.911-.402-4.422.44-1.513.842-3.476,2.459-5.891,4.853l-30.612,30.34c-2.652,2.628-4.301,4.989-4.946,7.084-.646,2.096-.302,4.312,1.031,6.652,1.333,2.339,3.619,5.143,6.857,8.41,3.612,3.646,6.76,6.253,9.44,7.82,2.68,1.568,5.375,2.157,8.088,1.769,2.712-.389,5.863-1.706,9.458-3.953l2.675,2.699-15.048,12.802Z"/><path class="cls-1" d="M686.771,302.507l-32.63-55.754,3.28-1.919c1.697,2.637,3.186,4.488,4.467,5.554,1.279,1.065,2.745,1.424,4.396,1.077,1.649-.348,3.826-1.312,6.531-2.896l40.219-23.538c2.704-1.583,4.614-2.972,5.731-4.165,1.115-1.194,1.571-2.562,1.365-4.102-.207-1.541-.977-3.581-2.309-6.122l3.28-1.919,15.354,26.237-3.279,1.919c-1.507-2.44-2.886-4.104-4.14-4.993-1.254-.888-2.719-1.113-4.392-.674-1.675.439-3.979,1.517-6.913,3.234l-37.197,21.77c-3.224,1.886-5.408,3.762-6.554,5.631-1.147,1.868-1.365,4.101-.656,6.699s2.226,5.881,4.549,9.852c2.593,4.43,4.992,7.738,7.198,9.923,2.205,2.185,4.67,3.426,7.394,3.725,2.724.298,6.104-.194,10.145-1.476l1.919,3.28-17.76,8.656Z"/><path class="cls-1" d="M84.606,331.355c.671-2.684,1.983-5.011,3.938-6.982,1.954-1.971,4.281-3.368,6.983-4.189,2.7-.822,5.46-.881,8.278-.176,2.884.721,5.288,2.087,7.209,4.102,1.919,2.012,3.271,4.382,4.051,7.108.779,2.725.818,5.498.113,8.316-.688,2.75-2.01,5.112-3.963,7.083-1.955,1.971-4.25,3.375-6.882,4.215-2.634.838-5.394.897-8.278.176-2.818-.705-5.226-2.055-7.221-4.051-1.998-1.997-3.385-4.359-4.164-7.083-.781-2.727-.801-5.565-.063-8.518Z"/><path class="cls-1" d="M105.676,452.016l-20.953.425c-10.927.222-19.235-1.876-24.928-6.291-5.693-4.416-8.65-12.053-8.87-22.908-.138-6.778.681-12.45,2.457-17.016,1.775-4.568,4.783-8.019,9.025-10.353,4.241-2.335,9.993-3.575,17.254-3.722l27.383-.556c5.117-.104,9.056-.305,11.817-.603,2.76-.299,4.786-1.049,6.077-2.25.881-.848,1.464-1.985,1.747-3.408.283-1.424.4-3.312.352-5.663l3.942-.08.717,35.371-3.941.08c-.048-2.352-.226-4.25-.531-5.697-.307-1.446-1.021-2.573-2.144-3.381-1.263-.874-3.264-1.438-6.001-1.694-2.739-.255-6.666-.332-11.782-.228l-28.213.572c-7.053.143-12.467,1.809-16.242,4.999-3.775,3.189-5.584,8.656-5.427,16.401.14,6.914,2.181,12.061,6.125,15.441,3.942,3.378,9.612,4.993,17.012,4.843l24.998-.507c6.154-.125,10.817-.445,13.989-.958,3.17-.515,5.4-1.477,6.686-2.886.88-.917,1.426-2.122,1.639-3.613.211-1.493.296-3.311.252-5.453l3.941-.08.61,30.08-3.941.08c-.043-2.144-.253-3.938-.628-5.383-.376-1.445-1.16-2.57-2.352-3.376-1.473-1.008-3.753-1.654-6.836-1.937-3.085-.285-7.497-.367-13.236-.25Z"/><path class="cls-1" d="M87.627,577.615l41.428-70.215-.157-.384-40.996,16.787c-4.224,1.729-7.253,3.231-9.085,4.505-1.833,1.273-2.789,2.729-2.864,4.368-.077,1.638.371,3.828,1.344,6.569l-3.648,1.494-10.575-25.827,3.648-1.494c1.359,2.956,2.667,5.054,3.924,6.297,1.254,1.241,2.948,1.725,5.079,1.452,2.13-.275,5.178-1.224,9.147-2.849l38.98-15.961c3.648-1.494,6.34-2.859,8.078-4.092,1.736-1.235,2.722-2.704,2.96-4.407.235-1.705-.146-3.958-1.144-6.763l3.648-1.494,7.784,19.01-38.793,64.876.157.384,37.828-15.489c4.225-1.73,7.253-3.232,9.086-4.505,1.833-1.274,2.81-2.72,2.932-4.339s-.35-3.819-1.412-6.597l3.648-1.494,10.575,25.827-3.648,1.494c-1.297-2.983-2.588-5.089-3.876-6.317-1.288-1.229-2.997-1.707-5.126-1.432-2.13.273-5.18,1.224-9.147,2.849l-57.414,23.509-2.358-5.76Z"/><path class="cls-1" d="M123.489,633.441l3.055-2.492c2.162,2.432,4.024,4.058,5.589,4.88,1.562.822,3.323.791,5.281-.091,1.957-.884,4.597-2.68,7.92-5.391l32.637-26.629c3.055-2.492,5.232-4.582,6.534-6.269,1.301-1.688,1.816-3.379,1.547-5.078-.271-1.699-1.293-3.744-3.065-6.136l3.055-2.493,19.938,24.437-3.055,2.492c-1.935-2.261-3.695-3.68-5.283-4.259-1.589-.578-3.394-.356-5.414.668-2.022,1.024-4.667,2.87-7.935,5.536l-31.511,25.71c-3.537,2.886-5.985,5.219-7.345,6.998-1.36,1.779-1.796,3.518-1.303,5.214.491,1.696,1.71,3.848,3.659,6.454l-3.054,2.492-21.25-26.045Z"/><path class="cls-1" d="M231.444,655.197l-11.696,48.824,40.808-26.372c2.318-1.498,4.075-2.737,5.269-3.717,1.194-.979,2.108-1.922,2.744-2.828,1.073-1.528,1.345-2.941.82-4.24-.527-1.298-2.034-2.821-4.525-4.568l2.264-3.228,20.638,14.479-2.264,3.227c-2.804-1.543-5.194-2.291-7.171-2.242-1.979.049-4.282.924-6.913,2.627l-62.402,39.991-2.973-2.086,15.21-68.284c1.006-4.446,1.283-7.971.827-10.571-.457-2.602-2.126-5.04-5.007-7.315l2.324-3.312,27.687,19.424-2.324,3.312c-3.115-2.185-5.389-3.337-6.826-3.458-1.436-.12-2.571.414-3.406,1.603-.557.794-1.046,1.822-1.469,3.089-.425,1.266-.963,3.147-1.617,5.646Z"/><path class="cls-1" d="M325.679,693.017l-8.326,28.588c4.781,1.393,8.665,2.092,11.654,2.098,2.987.005,5.292-.674,6.915-2.038,1.622-1.365,2.82-3.375,3.593-6.031l3.486,1.016-7.92,27.192-3.486-1.016c.773-2.655.879-5.001.321-7.038-.56-2.035-2.076-3.882-4.546-5.538-2.473-1.655-6.197-3.21-11.178-4.66l-6.557,22.511c-.832,2.856-.976,5.264-.429,7.224.545,1.96,1.913,3.637,4.1,5.03s5.373,2.699,9.557,3.918c4.714,1.373,8.617,2.007,11.711,1.898,3.092-.107,5.76-1.041,8.002-2.803,2.242-1.76,4.364-4.473,6.369-8.14l3.785,1.102-7.209,19.188-61.856-18.016,1.103-3.785c3.159.776,5.601,1.109,7.327.999,1.724-.108,3.084-.885,4.081-2.323.995-1.438,1.947-3.718,2.857-6.84l13.519-46.417c.909-3.121,1.357-5.529,1.348-7.226-.011-1.695-.643-3.051-1.896-4.064-1.254-1.014-3.29-2.002-6.105-2.967l1.103-3.785,57.573,16.769-4.209,17.792-3.486-1.015c.493-3.674.307-6.682-.56-9.024-.868-2.341-2.588-4.282-5.165-5.826-2.576-1.542-6.123-2.972-10.638-4.287l-12.65-3.685c-1.13-.329-1.858.072-2.187,1.2Z"/><path class="cls-1" d="M458.558,719.972c.233,5.459-1.23,10.108-4.39,13.945-3.159,3.84-8.34,6.535-15.542,8.088l24.083,26.595c1.963,2.2,4.106,3.754,6.429,4.658,2.323.905,5.014,1.535,8.076,1.888l.168,3.938-20.005.854-26.783-31.463c-1.244-1.539-2.398-2.666-3.467-3.383-1.069-.716-2.282-1.148-3.638-1.299-1.356-.149-3.106-.179-5.248-.088l.92,21.561c.145,3.386.582,5.964,1.316,7.731.732,1.77,2.131,2.921,4.197,3.455,2.064.535,5.17.715,9.316.537l.168,3.939-36.589,1.561-.168-3.938c3.242-.276,5.662-.743,7.261-1.4,1.598-.655,2.638-1.826,3.122-3.508.481-1.682.654-4.146.515-7.395l-2.061-48.302c-.138-3.248-.485-5.673-1.037-7.277-.554-1.602-1.586-2.684-3.098-3.242-1.514-.559-3.758-.843-6.734-.855l-.168-3.938,32.547-1.389c9.466-.403,16.901,1.044,22.303,4.345,5.401,3.3,8.237,8.095,8.506,14.383ZM416.733,708.361l1.287,30.162,7.359-.313c6.841-.292,11.899-1.788,15.177-4.489,3.276-2.7,4.793-6.919,4.548-12.655-.236-5.527-1.738-9.462-4.501-11.802-2.766-2.339-6.982-3.389-12.647-3.146l-9.536.406c-1.176.051-1.737.663-1.687,1.838Z"/><path class="cls-1" d="M521.434,766.201l-9.599-21.222,3.596-1.345c3.111,5.557,7.284,9.257,12.516,11.103,5.232,1.848,10.763,1.679,16.593-.502,4.794-1.793,8.153-4.359,10.079-7.701,1.925-3.341,2.174-6.923.744-10.746-.823-2.201-2.06-3.974-3.705-5.315-1.646-1.34-4.003-2.36-7.07-3.06-3.068-.698-7.155-1.163-12.263-1.396-6.274-.384-11.35-1.071-15.226-2.059-3.877-.986-6.913-2.49-9.109-4.513-2.195-2.021-3.912-4.685-5.147-7.988-1.502-4.016-1.912-7.925-1.229-11.725s2.333-7.187,4.95-10.159c2.616-2.973,6.064-5.259,10.34-6.858,5.441-2.035,11.307-2.05,17.595-.045l.891-5.318,2.235-.836,8.302,18.938-3.596,1.345c-3.541-4.729-7.271-7.839-11.188-9.329-3.918-1.487-7.949-1.457-12.095.094-3.952,1.478-6.724,3.641-8.316,6.488-1.593,2.85-1.784,5.893-.573,9.131,1.14,3.046,3.216,5.241,6.23,6.587,3.014,1.348,7.734,2.222,14.162,2.623,7.479.452,13.465,1.204,17.957,2.256s7.922,2.574,10.293,4.568c2.369,1.993,4.197,4.707,5.481,8.14,1.623,4.341,1.936,8.581.937,12.721-1,4.14-3.125,7.889-6.373,11.244-3.249,3.356-7.497,6.017-12.744,7.979-3.692,1.381-7.213,2.088-10.56,2.122-3.349.033-6.992-.578-10.934-1.837l-.939,5.779-2.235.836Z"/><path class="cls-1" d="M614.237,724.661l-2.267-3.226c2.58-1.981,4.337-3.723,5.27-5.224.932-1.499,1.027-3.258.288-5.274-.74-2.016-2.342-4.777-4.808-8.287l-24.214-34.466c-2.267-3.226-4.195-5.548-5.783-6.968-1.589-1.419-3.24-2.055-4.954-1.908-1.714.148-3.827,1.021-6.34,2.616l-2.267-3.227,25.807-18.13,2.267,3.226c-2.395,1.767-3.937,3.421-4.628,4.963-.691,1.543-.6,3.359.277,5.447.876,2.091,2.527,4.861,4.952,8.312l23.379,33.277c2.624,3.735,4.774,6.345,6.451,7.829,1.677,1.485,3.38,2.044,5.106,1.675,1.728-.367,3.961-1.43,6.701-3.187l2.266,3.227-27.504,19.323Z"/><path class="cls-1" d="M664.817,564.994l16.052,11.665-2.677,3.305c-3.291-2.309-6.2-3.663-8.726-4.062-2.525-.397-4.92.087-7.187,1.456-2.265,1.37-4.662,3.613-7.186,6.73-2.134,2.634-3.652,4.675-4.558,6.121-.905,1.449-1.346,2.515-1.323,3.201.023.687.357,1.29,1.002,1.812l43.134,34.932c2.312,1.872,4.364,3.157,6.158,3.853,1.794.698,3.637.565,5.527-.396,1.891-.959,4.108-2.901,6.653-5.825l3.064,2.48-24.682,30.477-3.063-2.481c2.374-3.15,3.823-5.735,4.349-7.76.525-2.021.271-3.852-.762-5.489-1.031-1.637-2.704-3.392-5.016-5.264l-43.133-34.932c-.646-.522-1.295-.735-1.949-.644-.653.094-1.509.627-2.562,1.597-1.054.972-2.517,2.613-4.388,4.924-1.697,2.097-3.17,4.107-4.419,6.033-1.247,1.927-2.041,3.867-2.376,5.819-.335,1.954-.014,3.973.968,6.058s2.854,4.336,5.615,6.749l-2.416,2.983-15.399-12.471,49.297-60.871Z"/><path class="cls-1" d="M688.908,525.618l27.969,10.214c1.708-4.677,2.665-8.506,2.87-11.487.205-2.98-.319-5.325-1.572-7.036-1.254-1.709-3.179-3.039-5.778-3.988l1.246-3.411,26.604,9.717-1.245,3.411c-2.598-.949-4.932-1.211-7.001-.79-2.069.423-4.012,1.812-5.83,4.167-1.816,2.356-3.615,5.969-5.396,10.841l22.024,8.044c2.794,1.02,5.187,1.325,7.178.91,1.993-.413,3.757-1.666,5.293-3.755s3.052-5.181,4.547-9.274c1.685-4.612,2.577-8.464,2.675-11.559.1-3.092-.653-5.816-2.262-8.171-1.606-2.354-4.172-4.652-7.697-6.898l1.353-3.703,18.664,8.473-22.103,60.517-3.703-1.353c.985-3.1,1.48-5.515,1.486-7.244.006-1.727-.678-3.136-2.046-4.226-1.37-1.089-3.58-2.191-6.635-3.307l-45.412-16.585c-3.053-1.115-5.427-1.723-7.119-1.827-1.692-.102-3.087.438-4.182,1.621-1.095,1.184-2.217,3.149-3.367,5.894l-3.703-1.353,20.571-56.327,17.472,5.387-1.246,3.411c-3.633-.736-6.646-.751-9.04-.043-2.395.71-4.446,2.297-6.158,4.764-1.711,2.468-3.374,5.911-4.987,10.328l-4.521,12.376c-.403,1.105-.052,1.858,1.052,2.262Z"/><path class="cls-1" d="M704.707,382.333l19.832-.639-.085,4.253c-4.016.196-7.143.912-9.382,2.146-2.238,1.236-3.832,3.088-4.781,5.56-.948,2.471-1.464,5.713-1.545,9.723-.067,3.389-.016,5.932.158,7.63.174,1.699.48,2.812.919,3.339.44.528,1.073.8,1.903.817l55.493,1.115c2.974.06,5.384-.186,7.227-.737,1.845-.55,3.219-1.785,4.121-3.705.904-1.917,1.464-4.812,1.68-8.683l3.941.079-.788,39.208-3.941-.079c-.059-3.944-.501-6.875-1.328-8.795-.825-1.918-2.148-3.208-3.969-3.867-1.819-.659-4.217-1.019-7.19-1.078l-55.493-1.115c-.83-.017-1.474.213-1.934.688-.459.476-.807,1.42-1.043,2.833-.235,1.414-.384,3.608-.443,6.581-.054,2.697.018,5.188.213,7.476.197,2.287.762,4.305,1.694,6.052.935,1.749,2.428,3.146,4.481,4.189,2.055,1.045,4.914,1.673,8.575,1.884l-.077,3.838-19.812-.398,1.573-78.313Z"/><path class="cls-1" d="M752.048,335.059c.646,2.69.559,5.36-.264,8.012-.82,2.651-2.238,4.965-4.254,6.943-2.015,1.978-4.435,3.305-7.259,3.983-2.892.694-5.654.594-8.289-.304-2.633-.896-4.926-2.373-6.879-4.43-1.95-2.056-3.267-4.497-3.944-7.322-.662-2.757-.582-5.462.239-8.113.821-2.651,2.207-4.958,4.153-6.919,1.948-1.961,4.368-3.29,7.259-3.984,2.825-.678,5.584-.594,8.276.253,2.694.847,5.017,2.3,6.968,4.355,1.952,2.057,3.283,4.565,3.993,7.523Z"/><text/><path class="cls-1" d="M955.224,335.893l-4.875-72.8h12.025c3.031,19.718,11.213,35.156,24.537,46.312,13.325,11.162,29.738,16.737,49.238,16.737,16.031,0,28.706-3.844,38.024-11.537,9.313-7.688,13.976-17.926,13.976-30.713,0-7.363-1.682-13.919-5.038-19.662-3.361-5.738-9.155-11.319-17.388-16.738-8.236-5.413-19.718-11.263-34.449-17.55-17.987-8.013-32.125-15.6-42.413-22.75-10.293-7.15-17.55-14.894-21.774-23.238-4.226-8.338-6.338-18.037-6.338-29.087,0-13.432,3.088-25.35,9.263-35.75s14.731-18.525,25.675-24.375c10.938-5.85,23.562-8.775,37.862-8.775,18.2,0,35.425,6.394,51.675,19.175l8.45-14.625h7.476l3.574,64.675h-12.024c-5.2-17.763-12.731-30.982-22.588-39.65-9.861-8.664-21.724-13-35.587-13-13.219,0-23.726,3.306-31.525,9.912-7.8,6.612-11.7,15.331-11.7,26.163,0,10.187,3.682,18.906,11.05,26.163,7.363,7.262,20.257,15.006,38.676,23.237,21.449,9.537,38.188,18.312,50.212,26.325,12.025,8.019,20.419,16.25,25.188,24.7,4.764,8.45,7.15,18.418,7.15,29.9,0,14.518-3.737,27.3-11.213,38.35-7.475,11.05-17.824,19.718-31.037,26-13.219,6.281-28.601,9.425-46.15,9.425-12.35,0-23.456-1.788-33.312-5.362-9.861-3.575-19.881-9.369-30.062-17.388l-9.1,15.925h-7.476Z"/><path class="cls-1" d="M1375.771,173.068v65.65c0,34.237-7.1,60.125-21.288,77.675-14.193,17.55-38.299,26.325-72.312,26.325-21.236,0-38.949-2.925-53.138-8.775-14.193-5.85-24.812-15.488-31.85-28.925-7.043-13.432-10.562-31.525-10.562-54.275v-85.8c0-16.032-.381-28.382-1.138-37.05-.762-8.663-2.98-15.057-6.662-19.175-2.601-2.813-6.124-4.712-10.562-5.688-4.443-.975-10.35-1.462-17.713-1.462v-12.35h110.825v12.35c-7.368,0-13.325.437-17.875,1.3-4.55.869-8.125,3.037-10.725,6.5-2.818,3.9-4.713,10.131-5.688,18.688-.976,8.562-1.463,20.856-1.463,36.888v88.4c0,22.1,4.875,39.163,14.625,51.188s26.757,18.038,51.025,18.038c21.663,0,37.913-6.063,48.75-18.2,10.831-12.131,16.25-29.788,16.25-52.975v-78.325c0-19.282-.706-33.907-2.113-43.875-1.411-9.963-4.28-17.007-8.612-21.125-2.818-2.813-6.556-4.601-11.212-5.363-4.662-.756-10.35-1.137-17.062-1.137v-12.35h94.25v12.35c-6.719,0-12.351.543-16.9,1.625-4.55,1.086-8.125,3.468-10.725,7.15-3.25,4.55-5.419,11.649-6.5,21.288-1.087,9.643-1.625,23.456-1.625,41.438Z"/><path class="cls-1" d="M1646.493,342.718l-154.375-203.45h-1.3v138.775c0,14.3.757,24.862,2.275,31.688,1.513,6.825,4.601,11.324,9.262,13.487,4.657,2.168,11.538,3.468,20.638,3.9v12.35h-87.425v-12.35c10.182-.432,17.819-1.731,22.912-3.9,5.089-2.163,8.501-6.5,10.238-13,1.731-6.5,2.6-16.463,2.6-29.9v-131.95c0-12.35-.762-21.775-2.275-28.275-1.518-6.5-4.605-11.101-9.262-13.812-4.662-2.707-11.649-4.276-20.963-4.712v-12.35h64.35l142.025,189.475h1.3v-128.05c0-14.3-.762-24.862-2.274-31.688-1.519-6.825-4.551-11.375-9.101-13.65s-11.486-3.519-20.8-3.737v-12.35h87.425v12.35c-10.187.218-17.824,1.462-22.912,3.737-5.094,2.275-8.506,6.663-10.237,13.163-1.737,6.5-2.601,16.468-2.601,29.9v194.35h-19.5Z"/><path class="cls-1" d="M1726.44,339.468v-12.35c11.051-.432,19.389-1.569,25.025-3.413,5.632-1.838,9.369-5.362,11.213-10.562,1.838-5.2,2.762-12.888,2.762-23.075v-151.45c0-10.182-.762-17.819-2.274-22.913-1.519-5.088-4.606-8.612-9.263-10.562-4.662-1.95-11.649-3.138-20.963-3.575v-12.35h114.075c19.5,0,37.481,3.199,53.95,9.587,16.463,6.394,30.764,15.387,42.9,26.975,12.131,11.593,21.557,25.299,28.274,41.112,6.714,15.818,10.075,33.043,10.075,51.675,0,23.618-5.475,44.525-16.412,62.725-10.943,18.2-26.057,32.449-45.338,42.737-19.287,10.293-41.6,15.438-66.95,15.438h-127.075ZM1805.091,105.143c-3.687,0-5.525,1.844-5.525,5.525v175.825c0,24.7,16.139,37.05,48.426,37.05,29.463,0,52.162-8.882,68.087-26.65,15.925-17.763,23.888-43.656,23.888-77.675,0-24.05-3.793-44.576-11.375-61.587-7.587-17.007-18.362-30.007-32.338-39-13.975-8.988-30.605-13.488-49.887-13.488h-41.275Z"/><path class="cls-1" d="M2025.111,335.893l-4.875-72.8h12.025c3.031,19.718,11.213,35.156,24.537,46.312,13.325,11.162,29.738,16.737,49.238,16.737,16.031,0,28.706-3.844,38.024-11.537,9.313-7.688,13.976-17.926,13.976-30.713,0-7.363-1.682-13.919-5.038-19.662-3.361-5.738-9.155-11.319-17.388-16.738-8.236-5.413-19.718-11.263-34.449-17.55-17.987-8.013-32.125-15.6-42.413-22.75-10.293-7.15-17.55-14.894-21.774-23.238-4.226-8.338-6.338-18.037-6.338-29.087,0-13.432,3.088-25.35,9.263-35.75s14.731-18.525,25.675-24.375c10.938-5.85,23.562-8.775,37.862-8.775,18.2,0,35.425,6.394,51.675,19.175l8.45-14.625h7.476l3.574,64.675h-12.024c-5.2-17.763-12.731-30.982-22.588-39.65-9.861-8.664-21.724-13-35.587-13-13.219,0-23.726,3.306-31.525,9.912-7.8,6.612-11.7,15.331-11.7,26.163,0,10.187,3.682,18.906,11.05,26.163,7.363,7.262,20.257,15.006,38.676,23.237,21.449,9.537,38.188,18.312,50.212,26.325,12.025,8.019,20.419,16.25,25.188,24.7,4.764,8.45,7.15,18.418,7.15,29.9,0,14.518-3.737,27.3-11.213,38.35-7.475,11.05-17.824,19.718-31.037,26-13.219,6.281-28.601,9.425-46.15,9.425-12.35,0-23.456-1.788-33.312-5.362-9.861-3.575-19.881-9.369-30.062-17.388l-9.1,15.925h-7.476Z"/><path class="cls-1" d="M2288.687,143.493l57.85,146.25,57.2-141.05c3.25-8.013,5.525-14.351,6.825-19.013,1.3-4.657,1.95-8.719,1.95-12.188,0-5.85-1.844-9.963-5.525-12.35-3.687-2.381-10.293-3.575-19.825-3.575v-12.35h78.976v12.35c-9.969,1.086-17.443,3.468-22.426,7.15-4.986,3.687-9.318,10.075-13,19.175l-88.074,214.825h-11.375l-83.851-202.475c-5.418-13.213-11.05-22.75-16.899-28.6-5.851-5.85-14.519-9.1-26-9.75v-12.675h105.949v12.675c-11.918,0-19.824,1.138-23.725,3.413s-5.85,5.688-5.85,10.238c0,3.037.594,6.556,1.787,10.562,1.188,4.012,3.194,9.806,6.013,17.387Z"/><path class="cls-1" d="M2436.562,339.468v-12.35c9.964-1.082,17.438-3.413,22.425-6.987,4.982-3.575,9.313-10.019,13-19.337l84.5-211.575h13.976l73.774,183.3c4.982,12.137,9.313,21.831,13,29.088,3.682,7.262,7.257,12.675,10.726,16.25,3.463,3.575,7.2,5.961,11.212,7.15,4.007,1.193,8.826,1.788,14.463,1.788v12.675h-105.95v-12.675c11.481,0,19.389-1.082,23.726-3.25,4.331-2.164,6.5-5.738,6.5-10.725,0-4.332-.488-8.394-1.463-12.188-.975-3.789-2.98-9.369-6.013-16.738l-13.325-35.1h-86.774c-7.368,17.768-12.568,31.525-15.601,41.275-3.036,9.75-4.55,16.793-4.55,21.125,0,6.068,2.001,10.237,6.013,12.512,4.007,2.275,10.451,3.413,19.338,3.413v12.35h-78.976ZM2516.837,232.543h74.1l-35.425-95.875h-1.3l-37.375,95.875Z"/><path class="cls-1" d="M2913.983,339.468h-209.95v-12.35c10.182-.432,17.819-1.569,22.912-3.413,5.089-1.838,8.501-5.362,10.238-10.562,1.731-5.2,2.6-12.888,2.6-23.075v-151.45c0-10.182-.762-17.819-2.275-22.913-1.518-5.088-4.605-8.612-9.262-10.562-4.662-1.95-11.649-3.138-20.963-3.575v-12.35h98.8v12.35c-9.318.218-16.25,1.356-20.8,3.413-4.55,2.062-7.587,5.799-9.1,11.212-1.519,5.418-2.275,13.65-2.275,24.7v140.075c0,12.137,1.676,21.343,5.037,27.625,3.357,6.287,9.263,10.562,17.713,12.837s20.15,3.413,35.1,3.413c16.682,0,29.9-1.3,39.65-3.9s17.275-7.475,22.588-14.625c5.307-7.15,9.476-17.438,12.512-30.875h12.351l-4.875,64.025Z"/><path class="cls-1" d="M3150.255,339.468h-209.95v-12.35c10.182-.432,17.819-1.569,22.912-3.413,5.089-1.838,8.501-5.362,10.238-10.562,1.731-5.2,2.6-12.888,2.6-23.075v-151.45c0-10.182-.762-17.819-2.275-22.913-1.518-5.088-4.605-8.612-9.262-10.562-4.662-1.95-11.649-3.138-20.963-3.575v-12.35h98.8v12.35c-9.318.218-16.25,1.356-20.8,3.413-4.55,2.062-7.587,5.799-9.1,11.212-1.519,5.418-2.275,13.65-2.275,24.7v140.075c0,12.137,1.676,21.343,5.037,27.625,3.357,6.287,9.263,10.562,17.713,12.837s20.15,3.413,35.1,3.413c16.682,0,29.9-1.3,39.65-3.9s17.275-7.475,22.588-14.625c5.307-7.15,9.476-17.438,12.512-30.875h12.351l-4.875,64.025Z"/><path class="cls-1" d="M1166.149,563.068v65.65c0,34.237-7.1,60.125-21.288,77.675-14.193,17.551-38.299,26.325-72.312,26.325-21.236,0-38.949-2.925-53.138-8.774-14.193-5.851-24.812-15.488-31.85-28.926-7.043-13.432-10.562-31.525-10.562-54.275v-85.799c0-16.032-.381-28.382-1.138-37.05-.762-8.663-2.98-15.057-6.662-19.175-2.601-2.813-6.124-4.712-10.562-5.688-4.443-.975-10.35-1.462-17.713-1.462v-12.35h110.825v12.35c-7.368,0-13.325.437-17.875,1.3-4.55.869-8.125,3.037-10.725,6.5-2.818,3.9-4.713,10.131-5.688,18.688-.976,8.562-1.463,20.856-1.463,36.888v88.4c0,22.101,4.875,39.163,14.625,51.188s26.757,18.038,51.025,18.038c21.663,0,37.913-6.064,48.75-18.201,10.831-12.131,16.25-29.787,16.25-52.975v-78.325c0-19.282-.706-33.907-2.113-43.875-1.411-9.963-4.28-17.007-8.612-21.125-2.818-2.813-6.556-4.601-11.212-5.363-4.662-.756-10.35-1.137-17.062-1.137v-12.35h94.25v12.35c-6.719,0-12.351.543-16.9,1.625-4.55,1.086-8.125,3.468-10.725,7.15-3.25,4.55-5.419,11.649-6.5,21.288-1.087,9.643-1.625,23.456-1.625,41.438Z"/><path class="cls-1" d="M1436.871,732.718l-154.375-203.45h-1.3v138.775c0,14.3.757,24.862,2.275,31.688,1.513,6.824,4.601,11.324,9.262,13.487,4.657,2.169,11.538,3.468,20.638,3.899v12.351h-87.425v-12.351c10.182-.432,17.819-1.73,22.912-3.899,5.089-2.163,8.501-6.5,10.238-13,1.731-6.5,2.6-16.464,2.6-29.899v-131.951c0-12.35-.762-21.775-2.275-28.275-1.518-6.5-4.605-11.101-9.262-13.812-4.662-2.707-11.649-4.276-20.963-4.712v-12.35h64.35l142.025,189.476h1.3v-128.051c0-14.3-.762-24.862-2.274-31.688-1.519-6.825-4.551-11.375-9.101-13.65s-11.486-3.519-20.8-3.737v-12.35h87.425v12.35c-10.187.218-17.824,1.462-22.912,3.737-5.094,2.275-8.506,6.663-10.237,13.163-1.737,6.5-2.601,16.468-2.601,29.9v194.35h-19.5Z"/><path class="cls-1" d="M1519.095,729.468v-12.351c10.182-.432,17.819-1.73,22.912-3.899,5.089-2.163,8.501-6.5,10.238-13,1.731-6.5,2.6-16.464,2.6-29.899v-131.951c0-12.35-.762-21.775-2.275-28.275-1.518-6.5-4.605-11.101-9.262-13.812-4.662-2.707-11.649-4.276-20.963-4.712v-12.35h98.8v12.35c-9.318.218-16.25,1.681-20.8,4.387-4.55,2.712-7.587,7.531-9.1,14.463-1.519,6.937-2.275,17.012-2.275,30.225v127.4c0,14.3.812,24.862,2.438,31.688,1.625,6.824,4.981,11.324,10.075,13.487,5.088,2.169,12.726,3.468,22.912,3.899v12.351h-105.3Z"/><path class="cls-1" d="M1719.292,533.493l57.85,146.25,57.2-141.049c3.25-8.013,5.525-14.351,6.825-19.013,1.3-4.657,1.95-8.719,1.95-12.188,0-5.85-1.844-9.963-5.525-12.35-3.687-2.381-10.293-3.575-19.825-3.575v-12.35h78.976v12.35c-9.969,1.086-17.443,3.468-22.426,7.15-4.986,3.687-9.318,10.075-13,19.175l-88.074,214.825h-11.375l-83.851-202.475c-5.418-13.213-11.05-22.75-16.899-28.6-5.851-5.85-14.519-9.1-26-9.75v-12.675h105.949v12.675c-11.918,0-19.824,1.138-23.725,3.413s-5.85,5.688-5.85,10.238c0,3.037.594,6.556,1.787,10.562,1.188,4.012,3.194,9.806,6.013,17.387Z"/><path class="cls-1" d="M1978.641,498.718v93.274c15.6,0,27.895-1.299,36.888-3.899,8.988-2.601,15.325-6.663,19.013-12.188,3.682-5.525,5.524-12.619,5.524-21.288h11.375v88.725h-11.375c0-8.663-1.736-15.813-5.2-21.45-3.468-5.631-9.643-9.856-18.524-12.675-8.887-2.813-21.45-4.226-37.7-4.226v73.451c0,9.318,1.676,16.686,5.037,22.1,3.357,5.418,8.938,9.262,16.738,11.537,7.8,2.275,18.524,3.412,32.175,3.412,15.382,0,27.676-1.513,36.888-4.549,9.206-3.032,16.412-8.176,21.612-15.438,5.2-7.258,9.206-17.276,12.024-30.062h12.351l-4.875,64.024h-201.825v-12.351c10.182-.432,17.819-1.568,22.912-3.412,5.089-1.838,8.501-5.362,10.238-10.562,1.731-5.199,2.6-12.889,2.6-23.074v-151.451c0-10.182-.762-17.819-2.275-22.913-1.518-5.088-4.605-8.612-9.262-10.562-4.662-1.95-11.649-3.138-20.963-3.575v-12.35h187.85l2.926,57.2h-11.375c-1.737-11.482-4.932-20.363-9.588-26.65-4.662-6.281-11.537-10.613-20.638-13-9.1-2.381-21.019-3.575-35.75-3.575h-41.274c-3.688,0-5.525,1.843-5.525,5.525Z"/><path class="cls-1" d="M2343.939,541.943c0,17.118-5.199,31.474-15.6,43.063-10.4,11.593-26.975,19.337-49.725,23.236l71.824,86.451c5.851,7.149,12.351,12.299,19.5,15.438,7.15,3.143,15.488,5.474,25.025,6.986v12.351h-62.725l-79.625-102.05c-3.688-4.982-7.15-8.664-10.4-11.051-3.25-2.381-6.987-3.899-11.213-4.549-4.225-.65-9.699-.976-16.412-.976v67.601c0,10.617,1.025,18.742,3.088,24.375,2.057,5.637,6.281,9.424,12.675,11.375,6.388,1.949,16.087,2.924,29.087,2.924v12.351h-114.725v-12.351c10.182-.432,17.819-1.568,22.912-3.412,5.089-1.838,8.501-5.362,10.238-10.562,1.731-5.199,2.6-12.889,2.6-23.074v-151.451c0-10.182-.762-17.819-2.275-22.913-1.518-5.088-4.605-8.612-9.262-10.562-4.662-1.95-11.649-3.138-20.963-3.575v-12.35h102.05c29.682,0,52.757,5.525,69.226,16.575,16.463,11.05,24.699,26.437,24.699,46.15ZM2214.59,500.018v94.575h23.075c21.45,0,37.481-4.007,48.1-12.025,10.613-8.013,15.925-21.013,15.925-39,0-17.332-4.174-29.844-12.512-37.538-8.344-7.688-21.399-11.538-39.163-11.538h-29.899c-3.688,0-5.525,1.843-5.525,5.525Z"/><path class="cls-1" d="M2409.913,725.893l-4.875-72.8h12.025c3.031,19.718,11.213,35.155,24.537,46.312,13.325,11.161,29.738,16.737,49.238,16.737,16.031,0,28.706-3.844,38.024-11.537,9.313-7.688,13.976-17.926,13.976-30.713,0-7.363-1.682-13.919-5.038-19.662-3.361-5.738-9.155-11.319-17.388-16.738-8.236-5.412-19.718-11.263-34.449-17.549-17.987-8.014-32.125-15.601-42.413-22.75-10.293-7.15-17.55-14.895-21.774-23.238-4.226-8.338-6.338-18.037-6.338-29.087,0-13.432,3.088-25.35,9.263-35.75s14.731-18.525,25.675-24.375c10.938-5.85,23.562-8.775,37.862-8.775,18.2,0,35.425,6.394,51.675,19.175l8.45-14.625h7.476l3.574,64.675h-12.024c-5.2-17.763-12.731-30.982-22.588-39.65-9.861-8.664-21.724-13-35.587-13-13.219,0-23.726,3.306-31.525,9.912-7.8,6.612-11.7,15.331-11.7,26.163,0,10.187,3.682,18.906,11.05,26.163,7.363,7.262,20.257,15.006,38.676,23.237,21.449,9.537,38.188,18.312,50.212,26.325,12.025,8.019,20.419,16.25,25.188,24.7,4.764,8.449,7.15,18.418,7.15,29.9,0,14.518-3.737,27.299-11.213,38.35-7.475,11.05-17.824,19.719-31.037,26-13.219,6.281-28.601,9.425-46.15,9.425-12.35,0-23.456-1.788-33.312-5.362-9.861-3.575-19.881-9.369-30.062-17.388l-9.1,15.925h-7.476Z"/><path class="cls-1" d="M2610.435,729.468v-12.351c10.182-.432,17.819-1.73,22.912-3.899,5.089-2.163,8.501-6.5,10.238-13,1.731-6.5,2.6-16.464,2.6-29.899v-131.951c0-12.35-.762-21.775-2.275-28.275-1.518-6.5-4.605-11.101-9.262-13.812-4.662-2.707-11.649-4.276-20.963-4.712v-12.35h98.8v12.35c-9.318.218-16.25,1.681-20.8,4.387-4.55,2.712-7.587,7.531-9.1,14.463-1.519,6.937-2.275,17.012-2.275,30.225v127.4c0,14.3.812,24.862,2.438,31.688,1.625,6.824,4.981,11.324,10.075,13.487,5.088,2.169,12.726,3.468,22.912,3.899v12.351h-105.3Z"/><path class="cls-1" d="M2982.883,479.218l3.25,62.075h-13.325c-.868-12.563-3.306-22.313-7.312-29.25-4.012-6.932-9.912-11.807-17.713-14.625-7.8-2.813-17.986-4.225-30.55-4.225-10.618,0-18.581.325-23.888.975-5.312.65-8.774,1.681-10.399,3.087-1.625,1.412-2.438,3.413-2.438,6.012v173.875c0,9.318.919,16.85,2.763,22.588,1.838,5.743,5.794,9.969,11.862,12.675,6.063,2.712,15.163,4.28,27.3,4.712v12.351h-122.85v-12.351c12.35-.432,21.5-2,27.462-4.712,5.957-2.706,9.913-6.932,11.862-12.675,1.95-5.738,2.926-13.27,2.926-22.588v-173.875c0-2.6-.762-4.601-2.275-6.012-1.519-1.407-4.499-2.438-8.938-3.087-4.443-.65-11.324-.975-20.638-.975-8.45,0-16.25.381-23.399,1.137-7.15.762-13.438,2.656-18.851,5.688-5.418,3.037-9.699,7.8-12.837,14.3-3.144,6.5-4.932,15.493-5.363,26.975h-12.024v-62.075h245.375Z"/><path class="cls-1" d="M3076.155,498.718v93.274c15.6,0,27.895-1.299,36.888-3.899,8.988-2.601,15.325-6.663,19.013-12.188,3.682-5.525,5.524-12.619,5.524-21.288h11.375v88.725h-11.375c0-8.663-1.736-15.813-5.2-21.45-3.468-5.631-9.643-9.856-18.524-12.675-8.887-2.813-21.45-4.226-37.7-4.226v73.451c0,9.318,1.676,16.686,5.037,22.1,3.357,5.418,8.938,9.262,16.738,11.537,7.8,2.275,18.524,3.412,32.175,3.412,15.382,0,27.676-1.513,36.888-4.549,9.206-3.032,16.412-8.176,21.612-15.438,5.2-7.258,9.206-17.276,12.024-30.062h12.351l-4.875,64.024h-201.825v-12.351c10.182-.432,17.819-1.568,22.912-3.412,5.089-1.838,8.501-5.362,10.238-10.562,1.731-5.199,2.6-12.889,2.6-23.074v-151.451c0-10.182-.762-17.819-2.275-22.913-1.518-5.088-4.605-8.612-9.262-10.562-4.662-1.95-11.649-3.138-20.963-3.575v-12.35h187.85l2.926,57.2h-11.375c-1.737-11.482-4.932-20.363-9.588-26.65-4.662-6.281-11.537-10.613-20.638-13-9.1-2.381-21.019-3.575-35.75-3.575h-41.274c-3.688,0-5.525,1.843-5.525,5.525Z"/><path class="cls-1" d="M3479.805,479.218l3.25,62.075h-13.325c-.868-12.563-3.306-22.313-7.312-29.25-4.012-6.932-9.912-11.807-17.713-14.625-7.8-2.813-17.986-4.225-30.55-4.225-10.618,0-18.581.325-23.888.975-5.312.65-8.774,1.681-10.399,3.087-1.625,1.412-2.438,3.413-2.438,6.012v173.875c0,9.318.919,16.85,2.763,22.588,1.838,5.743,5.794,9.969,11.862,12.675,6.063,2.712,15.163,4.28,27.3,4.712v12.351h-122.85v-12.351c12.35-.432,21.5-2,27.462-4.712,5.957-2.706,9.913-6.932,11.862-12.675,1.95-5.738,2.926-13.27,2.926-22.588v-173.875c0-2.6-.762-4.601-2.275-6.012-1.519-1.407-4.499-2.438-8.938-3.087-4.443-.65-11.324-.975-20.638-.975-8.45,0-16.25.381-23.399,1.137-7.15.762-13.438,2.656-18.851,5.688-5.418,3.037-9.699,7.8-12.837,14.3-3.144,6.5-4.932,15.493-5.363,26.975h-12.024v-62.075h245.375Z"/></svg>